<svg xmlns="http://www.w3.org/2000/svg" viewBox="0 0 1100 500"><rect width="1100" height="500" fill="#fff"/><style>.key{fill:#f5f5f5;stroke:#333;stroke-width:2;rx:8}.key-text{font-family:Arial,sans-serif;font-size:12px;fill:#333}.key-text,.key-text-code,.key-text-small{text-anchor:middle}.key-text-small{font-family:Arial,sans-serif;font-size:9px;fill:#666}.key-text-code{font-family:monospace;font-size:8px;fill:#06c}.title{font-family:Arial,sans-serif;font-size:20px;fill:#333;font-weight:700}.special{fill:#e3f2fd}.thumb{fill:#fff3e0}</style><text x="550" y="30" class="title" text-anchor="middle">Layer 0 - Default Layer</text><g transform="translate(50, 50)"><rect width="55" height="55" x="0" y="0" class="key"/><text x="27" y="25" class="key-text">ESC</text><text x="27" y="45" class="key-text-code">&amp;kp ESC</text></g><g transform="translate(110, 50)"><rect width="55" height="55" x="0" y="0" class="key"/><text x="27" y="25" class="key-text">1</text><text x="27" y="45" class="key-text-code">&amp;kp N1</text></g><g transform="translate(170, 50)"><rect width="55" height="55" x="0" y="0" class="key"/><text x="27" y="25" class="key-text">2</text><text x="27" y="45" class="key-text-code">&amp;kp N2</text></g><g transform="translate(230, 50)"><rect width="55" height="55" x="0" y="0" class="key"/><text x="27" y="25" class="key-text">3</text><text x="27" y="45" class="key-text-code">&amp;kp N3</text></g><g transform="translate(290, 50)"><rect width="55" height="55" x="0" y="0" class="key"/><text x="27" y="25" class="key-text">4</text><text x="27" y="45" class="key-text-code">&amp;kp N4</text></g><g transform="translate(350, 50)"><rect width="55" height="55" x="0" y="0" class="key"/><text x="27" y="25" class="key-text">5</text><text x="27" y="45" class="key-text-code">&amp;kp N5</text></g><g transform="translate(630, 50)"><rect width="55" height="55" x="0" y="0" class="key"/><text x="27" y="25" class="key-text">6</text><text x="27" y="45" class="key-text-code">&amp;kp N6</text></g><g transform="translate(690, 50)"><rect width="55" height="55" x="0" y="0" class="key"/><text x="27" y="25" class="key-text">7</text><text x="27" y="45" class="key-text-code">&amp;kp N7</text></g><g transform="translate(750, 50)"><rect width="55" height="55" x="0" y="0" class="key"/><text x="27" y="25" class="key-text">8</text><text x="27" y="45" class="key-text-code">&amp;kp N8</text></g><g transform="translate(810, 50)"><rect width="55" height="55" x="0" y="0" class="key"/><text x="27" y="25" class="key-text">9</text><text x="27" y="45" class="key-text-code">&amp;kp N9</text></g><g transform="translate(870, 50)"><rect width="55" height="55" x="0" y="0" class="key"/><text x="27" y="25" class="key-text">0</text><text x="27" y="45" class="key-text-code">&amp;kp N0</text></g><g transform="translate(930, 50)"><rect width="55" height="55" x="0" y="0" class="key"/><text x="27" y="25" class="key-text">BKSP</text><text x="27" y="45" class="key-text-code">&amp;kp BKSP</text></g><g transform="translate(50, 110)"><rect width="55" height="55" x="0" y="0" class="key"/><text x="27" y="25" class="key-text">TAB</text><text x="27" y="45" class="key-text-code">&amp;kp TAB</text></g><g transform="translate(110, 110)"><rect width="55" height="55" x="0" y="0" class="key"/><text x="27" y="25" class="key-text">Q</text><text x="27" y="45" class="key-text-code">&amp;kp Q</text></g><g transform="translate(170, 110)"><rect width="55" height="55" x="0" y="0" class="key"/><text x="27" y="25" class="key-text">W</text><text x="27" y="45" class="key-text-code">&amp;kp W</text></g><g transform="translate(230, 110)"><rect width="55" height="55" x="0" y="0" class="key"/><text x="27" y="25" class="key-text">E</text><text x="27" y="45" class="key-text-code">&amp;kp E</text></g><g transform="translate(290, 110)"><rect width="55" height="55" x="0" y="0" class="key"/><text x="27" y="25" class="key-text">R</text><text x="27" y="45" class="key-text-code">&amp;kp R</text></g><g transform="translate(350, 110)"><rect width="55" height="55" x="0" y="0" class="key"/><text x="27" y="25" class="key-text">T</text><text x="27" y="45" class="key-text-code">&amp;kp T</text></g><g transform="translate(630, 110)"><rect width="55" height="55" x="0" y="0" class="key"/><text x="27" y="25" class="key-text">Y</text><text x="27" y="45" class="key-text-code">&amp;kp Y</text></g><g transform="translate(690, 110)"><rect width="55" height="55" x="0" y="0" class="key"/><text x="27" y="25" class="key-text">U</text><text x="27" y="45" class="key-text-code">&amp;kp U</text></g><g transform="translate(750, 110)"><rect width="55" height="55" x="0" y="0" class="key"/><text x="27" y="25" class="key-text">I</text><text x="27" y="45" class="key-text-code">&amp;kp I</text></g><g transform="translate(810, 110)"><rect width="55" height="55" x="0" y="0" class="key"/><text x="27" y="25" class="key-text">O</text><text x="27" y="45" class="key-text-code">&amp;kp O</text></g><g transform="translate(870, 110)"><rect width="55" height="55" x="0" y="0" class="key"/><text x="27" y="25" class="key-text">P</text><text x="27" y="45" class="key-text-code">&amp;kp P</text></g><g transform="translate(930, 110)"><rect width="55" height="55" x="0" y="0" class="key"/><text x="27" y="25" class="key-text">\</text><text x="27" y="45" class="key-text-code">&amp;kp BSLH</text></g><g transform="translate(50, 170)"><rect width="55" height="55" x="0" y="0" class="key special"/><text x="27" y="25" class="key-text">SHIFT</text><text x="27" y="45" class="key-text-code">&amp;kp LSHFT</text></g><g transform="translate(110, 170)"><rect width="55" height="55" x="0" y="0" class="key"/><text x="27" y="25" class="key-text">A</text><text x="27" y="45" class="key-text-code">&amp;kp A</text></g><g transform="translate(170, 170)"><rect width="55" height="55" x="0" y="0" class="key"/><text x="27" y="25" class="key-text">S</text><text x="27" y="45" class="key-text-code">&amp;kp S</text></g><g transform="translate(230, 170)"><rect width="55" height="55" x="0" y="0" class="key"/><text x="27" y="25" class="key-text">D</text><text x="27" y="45" class="key-text-code">&amp;kp D</text></g><g transform="translate(290, 170)"><rect width="55" height="55" x="0" y="0" class="key"/><text x="27" y="25" class="key-text">F</text><text x="27" y="45" class="key-text-code">&amp;kp F</text></g><g transform="translate(350, 170)"><rect width="55" height="55" x="0" y="0" class="key"/><text x="27" y="25" class="key-text">G</text><text x="27" y="45" class="key-text-code">&amp;kp G</text></g><g transform="translate(630, 170)"><rect width="55" height="55" x="0" y="0" class="key"/><text x="27" y="25" class="key-text">H</text><text x="27" y="45" class="key-text-code">&amp;kp H</text></g><g transform="translate(690, 170)"><rect width="55" height="55" x="0" y="0" class="key"/><text x="27" y="25" class="key-text">J</text><text x="27" y="45" class="key-text-code">&amp;kp J</text></g><g transform="translate(750, 170)"><rect width="55" height="55" x="0" y="0" class="key"/><text x="27" y="25" class="key-text">K</text><text x="27" y="45" class="key-text-code">&amp;kp K</text></g><g transform="translate(810, 170)"><rect width="55" height="55" x="0" y="0" class="key"/><text x="27" y="25" class="key-text">L</text><text x="27" y="45" class="key-text-code">&amp;kp L</text></g><g transform="translate(870, 170)"><rect width="55" height="55" x="0" y="0" class="key"/><text x="27" y="25" class="key-text">;</text><text x="27" y="45" class="key-text-code">&amp;kp SEMI</text></g><g transform="translate(930, 170)"><rect width="55" height="55" x="0" y="0" class="key"/><text x="27" y="25" class="key-text">&apos;</text><text x="27" y="45" class="key-text-code">&amp;kp SQT</text></g><g transform="translate(50, 230)"><rect width="55" height="55" x="0" y="0" class="key special"/><text x="27" y="25" class="key-text">CTRL</text><text x="27" y="45" class="key-text-code">&amp;kp LCTRL</text></g><g transform="translate(110, 230)"><rect width="55" height="55" x="0" y="0" class="key"/><text x="27" y="25" class="key-text">Z</text><text x="27" y="45" class="key-text-code">&amp;kp Z</text></g><g transform="translate(170, 230)"><rect width="55" height="55" x="0" y="0" class="key"/><text x="27" y="25" class="key-text">X</text><text x="27" y="45" class="key-text-code">&amp;kp X</text></g><g transform="translate(230, 230)"><rect width="55" height="55" x="0" y="0" class="key"/><text x="27" y="25" class="key-text">C</text><text x="27" y="45" class="key-text-code">&amp;kp C</text></g><g transform="translate(290, 230)"><rect width="55" height="55" x="0" y="0" class="key"/><text x="27" y="25" class="key-text">V</text><text x="27" y="45" class="key-text-code">&amp;kp V</text></g><g transform="translate(350, 230)"><rect width="55" height="55" x="0" y="0" class="key"/><text x="27" y="25" class="key-text">B</text><text x="27" y="45" class="key-text-code">&amp;kp B</text></g><g transform="translate(630, 230)"><rect width="55" height="55" x="0" y="0" class="key"/><text x="27" y="25" class="key-text">N</text><text x="27" y="45" class="key-text-code">&amp;kp N</text></g><g transform="translate(690, 230)"><rect width="55" height="55" x="0" y="0" class="key"/><text x="27" y="25" class="key-text">M</text><text x="27" y="45" class="key-text-code">&amp;kp M</text></g><g transform="translate(750, 230)"><rect width="55" height="55" x="0" y="0" class="key"/><text x="27" y="25" class="key-text">,</text><text x="27" y="45" class="key-text-code">&amp;kp COMMA</text></g><g transform="translate(810, 230)"><rect width="55" height="55" x="0" y="0" class="key"/><text x="27" y="25" class="key-text">[</text><text x="27" y="45" class="key-text-code">&amp;kp LBKT</text></g><g transform="translate(870, 230)"><rect width="55" height="55" x="0" y="0" class="key"/><text x="27" y="25" class="key-text">/</text><text x="27" y="45" class="key-text-code">&amp;kp FSLH</text></g><g transform="translate(930, 230)"><rect width="55" height="55" x="0" y="0" class="key"/><text x="27" y="25" class="key-text">-</text><text x="27" y="45" class="key-text-code">&amp;kp MINUS</text></g><g transform="translate(230, 320)"><rect width="55" height="55" x="0" y="0" class="key thumb"/><text x="27" y="25" class="key-text">ALT</text><text x="27" y="45" class="key-text-code">&amp;kp LALT</text></g><g transform="translate(290, 320)"><rect width="55" height="55" x="0" y="0" class="key thumb"/><text x="27" y="25" class="key-text">SPACE</text><text x="27" y="45" class="key-text-code">&amp;kp SPC</text></g><g transform="translate(350, 320)"><rect width="55" height="55" x="0" y="0" class="key" style="fill:#c8e6c9"/><text x="27" y="20" class="key-text">TO(1)</text><text x="27" y="35" class="key-text-small">Layer 1</text><text x="27" y="48" class="key-text-code">&amp;to 1</text></g><g transform="translate(290, 380)"><rect width="55" height="55" x="0" y="0" class="key thumb"/><text x="27" y="20" class="key-text">MB1</text><text x="27" y="35" class="key-text-small">L-Click</text><text x="27" y="48" class="key-text-code">&amp;mkp MB1</text></g><g transform="translate(350, 380)"><rect width="55" height="55" x="0" y="0" class="key thumb"/><text x="27" y="20" class="key-text">MB2</text><text x="27" y="35" class="key-text-small">R-Click</text><text x="27" y="48" class="key-text-code">&amp;mkp MB2</text></g><g transform="translate(690, 320)"><rect width="55" height="55" x="0" y="0" class="key thumb"/><text x="27" y="25" class="key-text">WIN</text><text x="27" y="45" class="key-text-code">&amp;kp LWIN</text></g><g transform="translate(750, 320)"><rect width="55" height="55" x="0" y="0" class="key thumb"/><text x="27" y="25" class="key-text">SPACE</text><text x="27" y="45" class="key-text-code">&amp;kp SPC</text></g><g transform="translate(690, 380)"><rect width="55" height="55" x="0" y="0" class="key thumb"/><text x="27" y="25" class="key-text">ENTER</text><text x="27" y="45" class="key-text-code">&amp;kp RET</text></g><circle cx="850" cy="400" r="25" fill="#e1bee7" stroke="#333" stroke-width="2"/><text x="850" y="405" class="key-text-small" text-anchor="middle">Trackball</text></svg>