<svg xmlns="http://www.w3.org/2000/svg" viewBox="0 0 1100 500"><rect width="1100" height="500" fill="#fff"/><style>.key{fill:#f5f5f5;stroke:#333;stroke-width:2;rx:8}.key-text{font-family:Arial,sans-serif;font-size:12px;fill:#333}.key-text,.key-text-code,.key-text-small{text-anchor:middle}.key-text-small{font-family:Arial,sans-serif;font-size:9px;fill:#666}.key-text-code{font-family:monospace;font-size:8px;fill:#06c}.title{font-family:Arial,sans-serif;font-size:20px;fill:#333;font-weight:700}.special{fill:#e3f2fd}.bluetooth{fill:#bbdefb}.arrow{fill:#c8e6c9}.none{fill:#eee}.thumb{fill:#fff3e0}.important{fill:#ffcdd2}</style><text x="550" y="30" class="title" text-anchor="middle">Layer 1 - Function/Bluetooth Layer</text><g transform="translate(50, 50)"><rect width="55" height="55" x="0" y="0" class="key"/><text x="27" y="25" class="key-text">F1</text><text x="27" y="45" class="key-text-code">&amp;kp F1</text></g><g transform="translate(110, 50)"><rect width="55" height="55" x="0" y="0" class="key"/><text x="27" y="25" class="key-text">F2</text><text x="27" y="45" class="key-text-code">&amp;kp F2</text></g><g transform="translate(170, 50)"><rect width="55" height="55" x="0" y="0" class="key"/><text x="27" y="25" class="key-text">F3</text><text x="27" y="45" class="key-text-code">&amp;kp F3</text></g><g transform="translate(230, 50)"><rect width="55" height="55" x="0" y="0" class="key"/><text x="27" y="25" class="key-text">F4</text><text x="27" y="45" class="key-text-code">&amp;kp F4</text></g><g transform="translate(290, 50)"><rect width="55" height="55" x="0" y="0" class="key"/><text x="27" y="25" class="key-text">F5</text><text x="27" y="45" class="key-text-code">&amp;kp F5</text></g><g transform="translate(350, 50)"><rect width="55" height="55" x="0" y="0" class="key"/><text x="27" y="25" class="key-text">F6</text><text x="27" y="45" class="key-text-code">&amp;kp F6</text></g><g transform="translate(630, 50)"><rect width="55" height="55" x="0" y="0" class="key"/><text x="27" y="25" class="key-text">F7</text><text x="27" y="45" class="key-text-code">&amp;kp F7</text></g><g transform="translate(690, 50)"><rect width="55" height="55" x="0" y="0" class="key"/><text x="27" y="25" class="key-text">F8</text><text x="27" y="45" class="key-text-code">&amp;kp F8</text></g><g transform="translate(750, 50)"><rect width="55" height="55" x="0" y="0" class="key"/><text x="27" y="25" class="key-text">F9</text><text x="27" y="45" class="key-text-code">&amp;kp F9</text></g><g transform="translate(810, 50)"><rect width="55" height="55" x="0" y="0" class="key"/><text x="27" y="25" class="key-text">F10</text><text x="27" y="45" class="key-text-code">&amp;kp F10</text></g><g transform="translate(870, 50)"><rect width="55" height="55" x="0" y="0" class="key"/><text x="27" y="25" class="key-text">F11</text><text x="27" y="45" class="key-text-code">&amp;kp F11</text></g><g transform="translate(930, 50)"><rect width="55" height="55" x="0" y="0" class="key"/><text x="27" y="25" class="key-text">F12</text><text x="27" y="45" class="key-text-code">&amp;kp F12</text></g><g transform="translate(50, 110)"><rect width="55" height="55" x="0" y="0" class="key important"/><text x="27" y="20" class="key-text">CAPS</text><text x="27" y="35" class="key-text-small">Lock</text><text x="27" y="48" class="key-text-code">&amp;kp CAPS</text></g><g transform="translate(110, 110)"><rect width="55" height="55" x="0" y="0" class="key none"/><text x="27" y="30" class="key-text-small">(none)</text></g><g transform="translate(170, 110)"><rect width="55" height="55" x="0" y="0" class="key none"/><text x="27" y="30" class="key-text-small">(none)</text></g><g transform="translate(230, 110)"><rect width="55" height="55" x="0" y="0" class="key none"/><text x="27" y="30" class="key-text-small">(none)</text></g><g transform="translate(290, 110)"><rect width="55" height="55" x="0" y="0" class="key none"/><text x="27" y="30" class="key-text-small">(none)</text></g><g transform="translate(350, 110)"><rect width="55" height="55" x="0" y="0" class="key none"/><text x="27" y="30" class="key-text-small">(none)</text></g><g transform="translate(630, 110)"><rect width="55" height="55" x="0" y="0" class="key none"/><text x="27" y="30" class="key-text-small">(none)</text></g><g transform="translate(690, 110)"><rect width="55" height="55" x="0" y="0" class="key none"/><text x="27" y="30" class="key-text-small">(none)</text></g><g transform="translate(750, 110)"><rect width="55" height="55" x="0" y="0" class="key arrow"/><text x="27" y="25" class="key-text">↑</text><text x="27" y="45" class="key-text-code">&amp;kp UP</text></g><g transform="translate(810, 110)"><rect width="55" height="55" x="0" y="0" class="key none"/><text x="27" y="30" class="key-text-small">(none)</text></g><g transform="translate(870, 110)"><rect width="55" height="55" x="0" y="0" class="key none"/><text x="27" y="30" class="key-text-small">(none)</text></g><g transform="translate(930, 110)"><rect width="55" height="55" x="0" y="0" class="key none"/><text x="27" y="30" class="key-text-small">(none)</text></g><g transform="translate(50, 170)"><rect width="55" height="55" x="0" y="0" class="key special"/><text x="27" y="25" class="key-text">SHIFT</text><text x="27" y="45" class="key-text-code">&amp;kp LSHFT</text></g><g transform="translate(110, 170)"><rect width="55" height="55" x="0" y="0" class="key none"/><text x="27" y="30" class="key-text-small">(none)</text></g><g transform="translate(170, 170)"><rect width="55" height="55" x="0" y="0" class="key none"/><text x="27" y="30" class="key-text-small">(none)</text></g><g transform="translate(230, 170)"><rect width="55" height="55" x="0" y="0" class="key none"/><text x="27" y="30" class="key-text-small">(none)</text></g><g transform="translate(290, 170)"><rect width="55" height="55" x="0" y="0" class="key bluetooth"/><text x="27" y="20" class="key-text">BT</text><text x="27" y="35" class="key-text-small">Next</text><text x="27" y="48" class="key-text-code">&amp;bt BT_NXT</text></g><g transform="translate(350, 170)"><rect width="55" height="55" x="0" y="0" class="key bluetooth"/><text x="27" y="20" class="key-text">BT</text><text x="27" y="35" class="key-text-small">Clear</text><text x="27" y="48" class="key-text-code">&amp;bt BT_CLR</text></g><g transform="translate(630, 170)"><rect width="55" height="55" x="0" y="0" class="key none"/><text x="27" y="30" class="key-text-small">(none)</text></g><g transform="translate(690, 170)"><rect width="55" height="55" x="0" y="0" class="key arrow"/><text x="27" y="25" class="key-text">←</text><text x="27" y="45" class="key-text-code">&amp;kp LEFT</text></g><g transform="translate(750, 170)"><rect width="55" height="55" x="0" y="0" class="key arrow"/><text x="27" y="25" class="key-text">↓</text><text x="27" y="45" class="key-text-code">&amp;kp DOWN</text></g><g transform="translate(810, 170)"><rect width="55" height="55" x="0" y="0" class="key arrow"/><text x="27" y="25" class="key-text">→</text><text x="27" y="45" class="key-text-code">&amp;kp RIGHT</text></g><g transform="translate(870, 170)"><rect width="55" height="55" x="0" y="0" class="key none"/><text x="27" y="30" class="key-text-small">(none)</text></g><g transform="translate(930, 170)"><rect width="55" height="55" x="0" y="0" class="key none"/><text x="27" y="30" class="key-text-small">(none)</text></g><g transform="translate(50, 230)"><rect width="55" height="55" x="0" y="0" class="key special"/><text x="27" y="25" class="key-text">CTRL</text><text x="27" y="45" class="key-text-code">&amp;kp LCTRL</text></g><g transform="translate(110, 230)"><rect width="55" height="55" x="0" y="0" class="key none"/><text x="27" y="30" class="key-text-small">(none)</text></g><g transform="translate(170, 230)"><rect width="55" height="55" x="0" y="0" class="key none"/><text x="27" y="30" class="key-text-small">(none)</text></g><g transform="translate(230, 230)"><rect width="55" height="55" x="0" y="0" class="key none"/><text x="27" y="30" class="key-text-small">(none)</text></g><g transform="translate(290, 230)"><rect width="55" height="55" x="0" y="0" class="key none"/><text x="27" y="30" class="key-text-small">(none)</text></g><g transform="translate(350, 230)"><rect width="55" height="55" x="0" y="0" class="key none"/><text x="27" y="30" class="key-text-small">(none)</text></g><g transform="translate(630, 230)"><rect width="55" height="55" x="0" y="0" class="key none"/><text x="27" y="30" class="key-text-small">(none)</text></g><g transform="translate(690, 230)"><rect width="55" height="55" x="0" y="0" class="key none"/><text x="27" y="30" class="key-text-small">(none)</text></g><g transform="translate(750, 230)"><rect width="55" height="55" x="0" y="0" class="key"/><text x="27" y="25" class="key-text">.</text><text x="27" y="45" class="key-text-code">&amp;kp DOT</text></g><g transform="translate(810, 230)"><rect width="55" height="55" x="0" y="0" class="key"/><text x="27" y="25" class="key-text">]</text><text x="27" y="45" class="key-text-code">&amp;kp RBKT</text></g><g transform="translate(870, 230)"><rect width="55" height="55" x="0" y="0" class="key none"/><text x="27" y="30" class="key-text-small">(none)</text></g><g transform="translate(930, 230)"><rect width="55" height="55" x="0" y="0" class="key"/><text x="27" y="25" class="key-text">=</text><text x="27" y="45" class="key-text-code">&amp;kp EQUAL</text></g><g transform="translate(230, 320)"><rect width="55" height="55" x="0" y="0" class="key thumb"/><text x="27" y="25" class="key-text">ALT</text><text x="27" y="45" class="key-text-code">&amp;kp LALT</text></g><g transform="translate(290, 320)"><rect width="55" height="55" x="0" y="0" class="key thumb"/><text x="27" y="25" class="key-text">SPACE</text><text x="27" y="45" class="key-text-code">&amp;kp SPC</text></g><g transform="translate(350, 320)"><rect width="55" height="55" x="0" y="0" class="key" style="fill:#c8e6c9"/><text x="27" y="20" class="key-text">TO(0)</text><text x="27" y="35" class="key-text-small">Layer 0</text><text x="27" y="48" class="key-text-code">&amp;to 0</text></g><g transform="translate(290, 380)"><rect width="55" height="55" x="0" y="0" class="key thumb"/><text x="27" y="20" class="key-text">MB1</text><text x="27" y="35" class="key-text-small">L-Click</text><text x="27" y="48" class="key-text-code">&amp;mkp MB1</text></g><g transform="translate(350, 380)"><rect width="55" height="55" x="0" y="0" class="key thumb"/><text x="27" y="20" class="key-text">MB2</text><text x="27" y="35" class="key-text-small">R-Click</text><text x="27" y="48" class="key-text-code">&amp;mkp MB2</text></g><g transform="translate(690, 320)"><rect width="55" height="55" x="0" y="0" class="key none"/><text x="27" y="30" class="key-text-small">(none)</text></g><g transform="translate(750, 320)"><rect width="55" height="55" x="0" y="0" class="key none"/><text x="27" y="30" class="key-text-small">(none)</text></g><g transform="translate(690, 380)"><rect width="55" height="55" x="0" y="0" class="key thumb"/><text x="27" y="25" class="key-text">ENTER</text><text x="27" y="45" class="key-text-code">&amp;kp RET</text></g><circle cx="850" cy="400" r="25" fill="#e1bee7" stroke="#333" stroke-width="2"/><text x="850" y="405" class="key-text-small" text-anchor="middle">Trackball</text><g transform="translate(50, 460)"><rect width="20" height="15" x="0" y="0" fill="#ffcdd2" stroke="#333"/><text x="25" y="12" class="key-text-small">Caps Lock</text><rect width="20" height="15" x="100" y="0" fill="#bbdefb" stroke="#333"/><text x="125" y="12" class="key-text-small">Bluetooth</text><rect width="20" height="15" x="200" y="0" fill="#c8e6c9" stroke="#333"/><text x="225" y="12" class="key-text-small">Arrows/Layer</text><rect width="20" height="15" x="320" y="0" fill="#eee" stroke="#333"/><text x="345" y="12" class="key-text-small">(none)</text></g></svg>